<?xml version="1.0" standalone="no"?>
<!DOCTYPE svg PUBLIC "-//W3C//DTD SVG 20010904//EN"
 "http://www.w3.org/TR/2001/REC-SVG-20010904/DTD/svg10.dtd">
<svg version="1.0" xmlns="http://www.w3.org/2000/svg"
 width="582.000000pt" height="466.000000pt" viewBox="0 0 582.000000 466.000000"
 preserveAspectRatio="xMidYMid meet">

<g transform="translate(0.000000,466.000000) scale(0.100000,-0.100000)"
fill="#000000" stroke="none">
<path d="M0 2330 l0 -2330 2910 0 2910 0 0 2330 0 2330 -2910 0 -2910 0 0
-2330z m2930 1598 c9 -26 14 -28 60 -28 27 0 50 -4 50 -9 0 -5 -16 -19 -35
-32 -38 -26 -41 -39 -24 -88 16 -44 7 -48 -36 -15 -40 30 -34 31 -104 -15 -24
-15 -24 -15 -17 14 19 78 19 79 -19 103 -19 12 -35 27 -35 32 0 6 22 10 49 10
48 0 50 1 62 38 21 65 21 65 49 -10z m-284 -98 c41 0 43 -12 7 -38 -24 -18
-25 -21 -14 -52 14 -42 9 -47 -25 -21 l-27 21 -35 -22 -35 -21 7 38 c6 32 4
41 -20 66 l-28 29 42 0 c23 0 42 4 42 9 0 5 5 22 11 38 l12 28 15 -37 c13 -33
19 -38 48 -38z m640 0 c40 0 43 -13 8 -36 -15 -10 -23 -23 -19 -31 3 -8 8 -26
12 -41 l6 -26 -34 22 -35 21 -32 -21 c-33 -21 -38 -16 -23 25 8 20 5 29 -15
48 -32 30 -30 39 10 39 31 0 36 4 47 38 l13 37 14 -37 c13 -34 19 -38 48 -38z
m-932 -155 c5 -19 13 -25 33 -25 25 0 26 -1 8 -20 -11 -12 -16 -29 -13 -45 6
-29 7 -29 -27 -13 -19 9 -28 9 -37 0 -20 -20 -31 -13 -24 14 5 19 1 30 -16 44
l-23 19 28 1 c19 0 31 7 39 25 6 14 15 25 19 25 4 0 10 -11 13 -25z m1131 3
c6 -13 20 -24 33 -26 26 -4 29 -17 6 -26 -12 -5 -15 -14 -10 -36 6 -34 6 -34
-29 -18 -19 9 -28 9 -37 0 -19 -19 -29 -14 -22 13 5 19 0 30 -17 45 l-24 19
28 1 c19 0 31 7 39 25 14 31 20 31 33 3z m-488 -8 c365 -49 660 -327 730 -689
l18 -91 63 0 62 0 0 119 c0 113 1 121 22 135 33 23 103 21 128 -4 19 -19 20
-33 20 -309 l0 -290 -27 -21 c-22 -18 -37 -21 -72 -17 -65 7 -71 21 -71 154
l0 113 -229 0 c-140 0 -232 4 -236 10 -4 6 78 11 226 12 175 2 233 6 237 16 3
9 -48 12 -232 12 l-236 0 0 35 0 35 94 0 c52 0 97 3 99 8 3 4 -4 42 -14 84
-72 302 -334 525 -639 545 -318 21 -628 -212 -710 -533 -11 -43 -20 -83 -20
-90 0 -10 28 -14 113 -16 l112 -3 0 -30 0 -30 -232 -3 c-198 -2 -233 -5 -233
-17 0 -13 34 -15 236 -15 154 0 233 -3 229 -10 -4 -6 -93 -10 -236 -10 l-229
0 0 -113 c0 -142 -6 -152 -85 -152 -88 0 -85 -10 -85 327 0 275 1 289 20 308
14 14 33 20 65 20 75 0 85 -18 85 -155 l0 -115 44 0 c49 0 50 1 61 83 8 59 44
165 80 237 122 243 377 424 647 459 91 12 108 12 195 1z m28 -410 c39 -19 93
-66 84 -73 -2 -2 -21 -16 -42 -32 l-38 -28 -45 23 c-62 30 -108 23 -151 -25
-93 -100 28 -244 150 -177 l32 17 -55 5 -55 5 -3 53 -3 53 128 -3 128 -3 -2
-48 c-4 -61 -22 -104 -63 -144 -101 -98 -256 -94 -345 10 -45 53 -58 95 -53
177 5 86 36 137 111 180 66 38 156 42 222 10z m-1267 -116 c22 -15 22 -17 22
-313 0 -335 3 -320 -74 -328 -38 -5 -48 -2 -71 21 l-26 26 3 291 c3 274 4 291
22 305 26 19 96 18 124 -2z m2443 -3 l24 -19 0 -292 0 -292 -24 -19 c-34 -28
-96 -25 -126 6 l-25 24 0 279 c0 267 1 280 21 306 16 21 29 26 64 26 27 0 51
-7 66 -19z m-2625 -95 c17 -13 19 -30 22 -197 4 -233 -2 -248 -94 -249 -54 0
-73 26 -76 100 l-3 65 -72 3 -73 3 0 59 0 59 73 3 72 3 3 65 c4 82 19 100 82
100 25 0 55 -6 66 -14z m2816 -3 c14 -13 18 -31 18 -85 l0 -68 75 0 75 0 0
-60 0 -60 -75 0 -75 0 0 -69 c0 -61 -3 -72 -22 -85 -33 -23 -103 -21 -128 4
-19 19 -20 33 -20 210 0 177 1 191 20 210 26 26 105 28 132 3z m-2172 -355
c14 -75 65 -212 84 -227 11 -9 32 0 95 38 150 91 283 130 466 138 210 9 366
-31 541 -138 45 -27 84 -49 88 -49 20 0 76 154 101 273 5 26 7 27 76 27 l72 0
-7 -62 c-9 -80 -47 -194 -93 -280 l-36 -66 48 -56 47 -56 89 0 89 0 30 -60
c56 -110 114 -310 90 -310 -6 0 -45 23 -87 51 l-75 51 -52 -51 c-28 -28 -57
-51 -63 -51 -6 0 -13 15 -17 33 -3 17 -16 56 -27 85 l-21 52 -94 0 c-100 0
-104 2 -157 74 -12 16 -17 14 -71 -18 -251 -151 -541 -164 -797 -36 -46 23
-92 50 -102 59 -18 15 -21 13 -59 -32 l-40 -47 -94 0 -95 0 -19 -45 c-10 -24
-22 -60 -26 -80 -3 -19 -11 -38 -16 -41 -6 -4 -34 17 -63 46 l-52 51 -82 -52
c-45 -28 -85 -49 -88 -45 -17 17 61 257 108 333 l21 33 86 0 87 0 48 55 48 55
-46 92 c-46 95 -85 224 -85 285 l0 33 69 0 68 0 13 -62z m-505 -1083 c17 -14
18 -17 3 -31 -13 -13 -20 -14 -38 -4 -42 23 -91 -35 -58 -68 20 -20 36 -14 30
13 -4 24 -2 25 47 25 47 0 51 -2 51 -24 0 -30 -52 -76 -86 -76 -70 0 -115 63
-90 125 8 18 22 38 33 44 26 15 85 13 108 -4z m294 -12 l13 -28 22 28 c20 24
66 38 66 20 0 -5 -14 -30 -30 -58 -17 -28 -30 -65 -30 -83 0 -29 -3 -33 -22
-30 -18 2 -24 11 -29 43 -3 22 -18 61 -33 88 l-28 47 30 0 c22 0 32 -7 41 -27z
m394 -3 c10 -16 21 -30 25 -30 4 0 16 14 25 30 12 20 26 30 43 30 24 0 24 -1
24 -90 0 -89 0 -90 -25 -90 -23 0 -25 4 -25 42 l0 42 -17 -24 c-9 -14 -18 -27
-20 -30 -2 -2 -15 9 -28 25 l-24 30 -1 -42 c0 -36 -3 -43 -20 -43 -19 0 -20 7
-20 90 0 87 1 90 23 90 15 0 29 -11 40 -30z m699 -2 l27 -33 1 33 c0 27 4 32
25 32 25 0 25 -1 25 -90 0 -81 -2 -90 -19 -90 -11 0 -31 19 -50 48 l-31 47 0
-47 c0 -44 -2 -48 -25 -48 -25 0 -25 1 -25 90 0 87 1 90 23 90 13 0 33 -13 49
-32z m438 12 c0 -16 -7 -20 -35 -20 -19 0 -35 -4 -35 -10 0 -5 14 -10 30 -10
25 0 30 -4 30 -25 0 -21 -5 -25 -30 -25 -40 0 -38 -18 3 -22 24 -2 33 -8 35
-25 3 -22 0 -23 -57 -23 l-61 0 0 90 0 90 60 0 c53 0 60 -2 60 -20z m321 10
c10 -6 19 -17 19 -24 0 -19 -30 -29 -45 -16 -9 7 -15 7 -19 1 -4 -5 4 -13 16
-16 58 -18 77 -71 36 -99 -43 -30 -119 -10 -105 28 5 13 14 16 42 10 47 -8 44
7 -5 28 -32 13 -40 22 -40 42 0 47 52 71 101 46z m379 -10 c0 -13 -7 -20 -20
-20 -17 0 -19 -8 -22 -67 -3 -61 -5 -68 -25 -71 -21 -3 -22 1 -25 65 -3 62 -5
68 -25 71 -15 2 -23 10 -23 23 0 17 8 19 70 19 63 0 70 -2 70 -20z m-3262
-396 c22 -15 30 -57 14 -80 -11 -16 -48 -34 -71 -34 -31 0 -29 -53 2 -68 19
-9 14 -11 -32 -11 -43 -1 -52 2 -43 11 17 17 16 177 0 180 -12 1 53 13 92 16
9 1 26 -5 38 -14z m570 3 c6 -7 8 -23 5 -36 l-6 -23 -21 27 c-15 18 -27 24
-39 20 -28 -11 -20 -33 23 -60 49 -31 63 -56 51 -88 -11 -28 -29 -37 -75 -37
-40 0 -54 14 -48 46 5 29 18 31 27 4 6 -19 44 -28 58 -14 11 12 -12 41 -48 63
-40 23 -47 61 -18 93 19 21 75 24 91 5z m1084 -7 c31 -23 40 -63 28 -116 -12
-51 -41 -74 -94 -74 -61 0 -90 33 -90 102 0 44 4 54 32 79 39 35 88 38 124 9z
m598 0 c24 -24 25 -38 4 -68 -15 -22 -14 -26 15 -73 l30 -49 -27 0 c-23 0 -30
8 -49 50 -12 28 -27 50 -32 50 -15 0 -14 -73 1 -88 9 -9 1 -12 -37 -12 -39 1
-46 3 -32 11 14 8 17 24 17 89 0 52 -4 82 -12 87 -8 5 1 10 27 14 68 10 74 10
95 -11z m1739 11 c9 -6 11 -18 7 -35 -7 -26 -26 -27 -26 -1 0 16 -25 26 -45
18 -27 -10 -12 -36 33 -61 50 -28 62 -60 38 -98 -15 -22 -23 -25 -64 -22 -45
3 -47 4 -50 36 -4 36 12 43 28 11 13 -24 53 -22 58 3 2 11 -10 24 -36 37 -54
28 -68 67 -35 103 17 19 68 24 92 9z m-3777 -13 c-19 -19 -15 -133 4 -153 23
-22 56 -15 71 15 20 39 17 127 -4 139 -14 8 -9 10 26 11 34 0 41 -3 33 -13 -6
-7 -14 -44 -18 -82 -8 -86 -23 -105 -81 -105 -65 0 -83 23 -83 108 0 40 -5 73
-12 80 -9 9 -2 12 32 12 34 0 41 -3 32 -12z m560 0 c-7 -7 -12 -25 -12 -40 0
-27 2 -28 50 -28 48 0 50 1 50 28 0 15 -5 33 -12 40 -9 9 -2 12 32 12 34 0 41
-3 32 -12 -16 -16 -16 -160 0 -176 9 -9 1 -12 -37 -12 -39 1 -46 3 -32 11 11
7 17 22 17 49 l0 40 -50 0 -50 0 0 -40 c0 -27 6 -42 18 -49 13 -8 6 -10 -32
-11 -39 0 -47 3 -38 12 17 17 16 175 0 181 -7 3 7 6 32 6 34 1 41 -2 32 -11z
m502 -5 c-3 -10 2 -27 10 -38 l15 -20 15 20 c9 11 14 28 12 38 -3 13 2 17 25
17 16 0 29 -3 29 -6 0 -3 -16 -26 -35 -51 -40 -52 -47 -107 -17 -129 15 -12
10 -13 -38 -13 -42 0 -51 2 -37 10 31 18 22 84 -19 140 l-36 49 40 0 c33 0 39
-3 36 -17z m604 6 c-27 -15 -25 -122 2 -149 24 -24 43 -25 64 -4 19 19 22 134
4 152 -9 9 -3 12 27 12 30 0 36 -3 27 -12 -7 -7 -12 -40 -12 -80 0 -85 -18
-108 -82 -108 -24 0 -48 4 -54 8 -23 15 -34 53 -34 116 0 42 -4 66 -12 69 -7
3 10 6 37 6 39 0 46 -2 33 -10z m774 -1 c-7 -7 -12 -43 -12 -90 0 -77 0 -78
25 -78 18 0 28 7 35 26 12 32 30 22 30 -17 l0 -29 -77 0 c-60 0 -74 3 -65 12
16 16 16 160 0 176 -9 9 -2 12 32 12 34 0 41 -3 32 -12z m261 5 c-17 -6 -18
-164 -1 -181 9 -9 1 -12 -37 -12 -39 1 -46 3 -32 11 14 8 17 24 17 87 0 47 -5
83 -12 90 -9 9 -2 12 33 11 24 0 38 -3 32 -6z m212 -58 c15 -35 31 -62 36 -59
4 2 18 32 30 64 21 58 23 60 57 60 28 0 33 -3 24 -12 -18 -18 -15 -139 4 -166
15 -22 15 -22 -32 -22 -37 0 -45 3 -36 12 7 7 12 35 11 63 l0 50 -29 -62 c-16
-35 -35 -63 -42 -63 -7 0 -24 28 -38 63 l-25 62 -3 -50 c-2 -29 1 -51 7 -53
26 -9 7 -22 -31 -22 -39 0 -40 1 -25 18 21 23 25 167 5 175 -7 3 3 6 23 6 36
1 37 -1 64 -64z m347 53 c-16 -16 -16 -160 0 -176 9 -9 2 -12 -32 -12 -34 0
-41 3 -32 12 17 17 16 175 0 181 -7 3 7 6 32 6 34 1 41 -2 32 -11z m288 -18
c0 -34 -15 -40 -23 -10 -3 11 -12 20 -21 20 -25 0 -23 -155 2 -169 13 -8 5
-10 -36 -11 -53 0 -53 0 -38 22 11 15 16 45 16 90 0 60 -2 68 -19 68 -10 0
-21 -9 -24 -20 -8 -31 -27 -24 -27 10 l0 30 85 0 85 0 0 -30z m-3876 -358 c11
-26 31 -73 46 -104 l27 -58 -45 0 c-38 0 -43 2 -32 15 6 8 9 23 5 35 -9 30
-71 29 -81 -2 -4 -13 -2 -24 5 -26 26 -9 8 -22 -31 -22 -38 0 -40 1 -26 18 14
15 49 90 79 170 13 35 32 26 53 -26z m354 25 c2 -10 1 -25 -2 -34 -5 -13 -11
-11 -31 11 -29 31 -48 33 -75 6 -47 -47 -6 -161 52 -147 14 4 28 16 31 27 8
30 27 24 27 -9 0 -32 -18 -41 -81 -41 -57 0 -81 26 -87 93 -4 52 -2 58 27 87
27 28 36 31 83 28 42 -2 54 -7 56 -21z m2145 3 c52 -41 43 -146 -13 -175 -92
-48 -174 27 -140 129 20 62 102 86 153 46z m595 4 c26 -18 28 -50 5 -76 -15
-17 -14 -21 15 -68 l31 -50 -28 0 c-23 0 -31 8 -51 50 -13 28 -27 50 -32 50
-13 0 -9 -75 4 -88 9 -9 1 -12 -37 -12 -46 0 -47 1 -32 18 19 20 22 83 8 144
-8 36 -8 37 23 41 62 8 72 7 94 -9z m470 0 c24 -16 29 -53 10 -72 -9 -9 -8
-16 5 -30 22 -25 21 -48 -3 -72 -16 -16 -33 -20 -92 -20 -55 1 -69 3 -55 11
14 8 17 24 17 90 0 66 -3 81 -17 87 -13 5 -5 9 27 13 76 10 85 10 108 -7z
m550 -7 c2 -10 1 -26 -3 -35 -5 -14 -9 -12 -28 12 -16 19 -27 25 -40 20 -28
-10 -16 -36 28 -61 47 -26 60 -55 42 -92 -11 -23 -18 -26 -62 -26 -49 0 -50 1
-53 33 -4 36 16 45 25 11 4 -15 12 -19 32 -17 38 4 32 28 -16 61 -37 24 -43
33 -43 62 0 42 20 56 75 52 29 -1 41 -7 43 -20z m-3566 1 c-7 -7 -12 -25 -12
-40 0 -27 2 -28 45 -28 45 0 45 0 45 34 0 19 -6 37 -12 39 -7 3 10 6 37 6 32
0 45 -2 36 -8 -18 -12 -20 -153 -2 -175 12 -14 9 -16 -35 -16 -37 0 -45 3 -36
12 7 7 12 29 12 50 l0 38 -45 0 -45 0 0 -38 c0 -21 5 -43 12 -50 9 -9 1 -12
-37 -12 -39 1 -46 3 -32 11 14 8 17 24 17 87 0 47 -5 83 -12 90 -9 9 -2 12 32
12 34 0 41 -3 32 -12z m340 0 c-7 -7 -12 -42 -12 -88 0 -46 5 -81 12 -88 9 -9
1 -12 -37 -12 -38 0 -46 3 -37 12 17 17 16 175 0 181 -7 3 9 6 37 6 38 1 46
-2 37 -11z m278 -5 c0 -10 -5 -25 -10 -33 -8 -13 -11 -11 -16 8 -5 16 -14 22
-35 22 -26 0 -29 -4 -29 -30 0 -27 3 -30 30 -30 21 0 30 -5 30 -16 0 -12 -7
-14 -30 -9 -30 6 -30 6 -30 -34 0 -39 2 -41 30 -41 23 0 33 6 40 26 12 32 30
22 30 -17 l0 -29 -86 0 c-73 0 -85 2 -75 14 6 7 14 44 18 80 5 55 3 69 -12 86
-18 20 -17 20 63 20 72 0 82 -2 82 -17z m193 6 c-8 -8 -6 -27 9 -70 11 -32 23
-57 27 -55 4 3 16 30 26 61 17 49 18 57 5 65 -11 7 -2 10 29 10 41 0 43 -1 29
-17 -8 -10 -30 -55 -49 -100 -22 -56 -38 -83 -49 -83 -11 0 -29 32 -57 100
l-40 100 40 0 c30 0 38 -3 30 -11z m397 -13 c0 -32 -20 -44 -27 -17 -4 15 -13
21 -34 21 -26 0 -29 -4 -29 -30 0 -27 3 -30 30 -30 21 0 30 -5 30 -16 0 -12
-7 -14 -30 -9 -30 6 -30 6 -30 -34 0 -39 2 -41 30 -41 23 0 33 6 40 26 12 32
30 22 30 -17 l0 -29 -87 0 c-83 0 -85 1 -70 18 12 13 17 37 17 82 0 45 -5 69
-17 82 -15 17 -13 18 65 18 80 0 82 -1 82 -24z m364 7 c-2 -10 3 -27 11 -37
15 -20 15 -20 30 0 8 10 13 27 11 37 -3 14 3 17 30 17 l34 0 -40 -51 c-45 -57
-54 -111 -22 -135 15 -12 10 -13 -38 -13 -42 0 -51 2 -37 10 30 17 22 77 -18
137 l-36 52 40 0 c32 0 38 -3 35 -17z m609 10 c-9 -3 -13 -29 -13 -78 0 -80
12 -102 54 -91 27 7 36 30 36 103 0 39 -4 55 -17 62 -14 8 -9 10 26 11 34 0
41 -3 33 -12 -6 -7 -14 -46 -18 -86 -4 -41 -13 -80 -21 -88 -18 -18 -93 -18
-118 0 -16 11 -20 30 -23 93 -3 43 -9 81 -16 85 -6 4 12 7 39 7 28 0 44 -3 38
-6z m1133 -9 c-3 -9 -6 -22 -6 -30 0 -21 -18 -17 -25 7 -10 31 -60 23 -60 -11
0 -21 5 -26 33 -28 20 -2 32 -9 32 -18 0 -12 -8 -13 -36 -8 l-35 6 3 -38 c3
-36 6 -39 36 -42 23 -2 32 1 32 11 0 8 7 20 15 27 13 11 15 7 15 -24 l0 -36
-82 0 c-64 0 -79 3 -70 12 16 16 16 160 0 176 -9 9 6 12 71 12 72 0 82 -2 77
-16z m544 -14 c0 -34 -15 -40 -25 -10 -3 11 -13 20 -21 20 -18 0 -20 -150 -2
-168 9 -9 0 -12 -42 -12 -48 1 -53 2 -37 14 23 18 26 166 3 166 -8 0 -18 -9
-21 -20 -10 -30 -25 -24 -25 10 l0 30 85 0 85 0 0 -30z"/>
<path d="M1300 2805 c0 -13 11 -15 63 -13 34 2 62 8 62 13 0 6 -28 11 -62 13
-52 2 -63 0 -63 -13z"/>
<path d="M4415 2810 c-3 -5 0 -13 8 -16 23 -9 112 0 110 11 -4 14 -110 19
-118 5z"/>
<path d="M2751 2609 c-79 -14 -227 -66 -291 -101 -151 -85 -298 -225 -376
-357 -24 -42 -44 -79 -44 -83 0 -5 66 -8 148 -8 l147 1 49 57 c124 145 328
241 514 242 99 0 208 -27 312 -77 79 -38 108 -59 183 -134 l89 -89 145 0 c79
0 143 3 141 8 -23 53 -80 141 -129 200 -120 145 -322 275 -504 323 -92 24
-296 34 -384 18z m107 -26 c-26 -4 -27 -6 -26 -66 0 -34 5 -68 10 -74 8 -9 6
-13 -4 -13 -11 0 -17 18 -21 72 -3 39 -4 75 -1 80 3 4 20 7 37 7 29 -2 30 -2
5 -6z m270 -25 c21 -21 13 -55 -19 -82 -17 -14 -35 -26 -40 -26 -23 0 -6 -18
23 -24 17 -3 29 -9 26 -12 -3 -2 -27 0 -53 7 l-48 12 29 15 c43 21 84 63 84
84 0 24 -27 34 -51 20 -26 -16 -34 -15 -19 3 15 18 51 20 68 3z m-422 -13 c22
-17 12 -20 -16 -5 -27 14 -69 -7 -77 -39 -10 -40 16 -75 60 -79 31 -3 39 1 49
22 6 14 15 26 20 26 14 0 -20 -57 -37 -64 -51 -19 -105 20 -105 77 0 58 63 95
106 62z m593 -44 c20 -13 8 -87 -20 -117 -27 -29 -40 -30 -69 -6 -18 15 -21
24 -16 50 15 64 64 99 105 73z m-766 -80 c19 -33 33 -62 30 -64 -2 -3 -34 8
-70 25 -36 16 -67 28 -68 26 -2 -2 10 -25 26 -52 17 -26 28 -50 25 -53 -7 -7
-85 120 -80 129 3 4 32 -6 64 -22 33 -17 62 -30 65 -30 11 0 4 23 -20 58 -14
20 -25 40 -25 45 0 17 19 -5 53 -62z m921 -17 c9 -8 16 -22 16 -29 0 -23 -51
-55 -86 -55 -41 0 -42 -7 -6 -38 30 -26 12 -19 -30 12 -38 27 -35 36 10 36 53
0 87 20 87 50 0 22 -4 25 -32 24 -18 -1 -30 2 -27 7 9 15 51 10 68 -7z m-1080
-90 c27 -30 46 -57 43 -60 -2 -3 -28 22 -57 56 -28 33 -48 60 -43 60 5 0 31
-25 57 -56z m-104 -24 c0 -5 -9 -10 -19 -10 -24 0 -39 -39 -20 -51 8 -5 21 -6
29 -3 72 30 71 30 85 11 23 -32 -3 -78 -44 -76 l-26 1 24 7 c32 9 50 36 34 52
-10 10 -21 9 -52 -1 -22 -7 -47 -10 -55 -7 -24 9 -20 53 6 71 26 18 38 20 38
6z m1335 -29 c3 -5 -10 -22 -30 -37 -19 -14 -35 -34 -35 -43 0 -10 -9 -17 -23
-17 -19 -1 -23 3 -20 20 3 13 -4 29 -16 40 -12 11 -21 23 -21 27 0 4 26 10 58
12 31 2 62 4 69 5 6 1 14 -2 18 -7z"/>
<path d="M3243 2492 c-7 -4 -19 -25 -28 -46 -18 -42 -8 -66 25 -66 23 0 60 46
60 74 0 37 -29 56 -57 38z"/>
<path d="M3496 2225 c20 -30 21 -30 59 0 l30 25 -53 0 -52 0 16 -25z"/>
<path d="M2790 2325 c-105 -22 -250 -83 -250 -105 0 -14 143 -79 212 -95 82
-19 228 -19 303 0 67 18 215 84 215 96 0 13 -140 76 -207 93 -89 23 -197 28
-273 11z"/>
<path d="M1970 2196 c0 -7 10 -37 21 -65 l22 -51 33 55 c19 31 34 60 34 66 0
5 -25 9 -55 9 -40 0 -55 -4 -55 -14z"/>
<path d="M3730 2200 c0 -6 14 -35 32 -66 l31 -56 24 58 c12 31 23 61 23 66 0
4 -25 8 -55 8 -31 0 -55 -5 -55 -10z"/>
<path d="M907 1193 c-14 -13 -7 -71 9 -77 22 -8 44 11 44 38 0 34 -34 59 -53
39z"/>
<path d="M2537 1182 c-17 -19 -23 -85 -11 -117 8 -20 48 -37 68 -29 40 15 41
122 3 149 -28 20 -40 19 -60 -3z"/>
<path d="M3167 1194 c-4 -4 -7 -20 -7 -36 0 -21 5 -28 20 -28 11 0 23 7 27 16
10 27 -22 65 -40 48z"/>
<path d="M810 776 c-13 -36 -14 -36 16 -36 22 0 24 3 19 23 -12 37 -24 42 -35
13z"/>
<path d="M3272 834 c-17 -12 -22 -25 -22 -59 0 -57 8 -75 38 -86 40 -15 62 12
62 77 0 43 -4 56 -22 68 -12 9 -25 16 -28 16 -3 0 -16 -7 -28 -16z"/>
<path d="M3897 843 c-4 -3 -7 -19 -7 -35 0 -32 24 -39 39 -10 15 28 -12 66
-32 45z"/>
<path d="M4357 843 c-4 -3 -7 -19 -7 -35 0 -23 4 -28 24 -28 28 0 40 24 26 51
-11 19 -31 25 -43 12z"/>
<path d="M4352 723 c2 -28 8 -39 22 -42 18 -3 46 22 46 40 0 15 -32 39 -51 39
-17 0 -20 -6 -17 -37z"/>
</g>
</svg>
